<svg width="24" height="24" viewBox="0 0 24 24" fill="none" xmlns="http://www.w3.org/2000/svg">
<path d="M2.39999 12.6C2.39999 11.6059 3.20588 10.8 4.19999 10.8C5.19411 10.8 5.99999 11.6059 5.99999 12.6V19.8C5.99999 20.7941 5.19411 21.6 4.19999 21.6C3.20588 21.6 2.39999 20.7941 2.39999 19.8V12.6Z" fill="#111827"/>
<path d="M7.19999 12.4V18.9167C7.19999 19.8258 7.7136 20.6568 8.52668 21.0634L8.58649 21.0933C9.253 21.4265 9.98794 21.6 10.7331 21.6H17.2325C18.3765 21.6 19.3615 20.7925 19.5859 19.6707L21.0259 12.4707C21.3229 10.9856 20.187 9.60002 18.6725 9.60002H14.4V4.80002C14.4 3.47454 13.3255 2.40002 12 2.40002C11.3373 2.40002 10.8 2.93728 10.8 3.60002V4.40002C10.8 5.4386 10.4631 6.44916 9.83999 7.28002L8.15999 9.52002C7.53685 10.3509 7.19999 11.3614 7.19999 12.4Z" fill="#111827"/>
<path d="M2.39999 12.6C2.39999 11.6059 3.20588 10.8 4.19999 10.8C5.19411 10.8 5.99999 11.6059 5.99999 12.6V19.8C5.99999 20.7941 5.19411 21.6 4.19999 21.6C3.20588 21.6 2.39999 20.7941 2.39999 19.8V12.6Z" stroke="white" stroke-width="2"/>
<path d="M7.19999 12.4V18.9167C7.19999 19.8258 7.7136 20.6568 8.52668 21.0634L8.58649 21.0933C9.253 21.4265 9.98794 21.6 10.7331 21.6H17.2325C18.3765 21.6 19.3615 20.7925 19.5859 19.6707L21.0259 12.4707C21.3229 10.9856 20.187 9.60002 18.6725 9.60002H14.4V4.80002C14.4 3.47454 13.3255 2.40002 12 2.40002C11.3373 2.40002 10.8 2.93728 10.8 3.60002V4.40002C10.8 5.4386 10.4631 6.44916 9.83999 7.28002L8.15999 9.52002C7.53685 10.3509 7.19999 11.3614 7.19999 12.4Z" stroke="white" stroke-width="2"/>
</svg>
